<?xml version="1.0" encoding="UTF-8"?>
<svg width="80px" height="80px" viewBox="0 0 80 80" version="1.1" xmlns="http://www.w3.org/2000/svg" xmlns:xlink="http://www.w3.org/1999/xlink">
    <title>a/channel/p3</title>
    <g id="a/channel/p3" stroke="none" stroke-width="1" fill="none" fill-rule="evenodd">
        <path d="M80,76 C80,78.2352941 78.2352941,80 76,80 L4,80 C1.76470588,80 0,78.2352941 0,76 L0,4 C0,1.76470588 1.76470588,1.42108547e-14 4,1.42108547e-14 L76,1.42108547e-14 C78.2352941,1.42108547e-14 80,1.76470588 80,4 L80,76 Z" id="Background" fill="#11AC73"></path>
        <g id="Group" transform="translate(17.764706, 24.705882)" fill="#FFFFFF" fill-rule="nonzero">
            <path d="M27.7647695,8.82352941 C27.7647695,8 27.8823529,0.352941176 18,0.352941176 L12.4705882,0.352941176 C16.9411765,1.76470588 16.7058824,7.41176471 16.7058824,8 L16.7058824,10.1176471 C16.7058824,10.7058824 16.8235294,16.7058824 12.4705882,17.7647059 L17.8823529,17.7647059 C24.7058824,18 27.6470588,14.1176471 27.7647695,8.82352941 Z" id="Path"></path>
            <path d="M37.5294118,15.2941176 C39.7647059,15.0588235 44.1176471,14 44.1176471,7.88235294 C44.1176471,0.117647059 36.3529412,0.470588235 35.8823529,0.470588235 L28.9411765,0.470588235 C28.9411765,0.470588235 34.2352941,0.588235294 34.2352941,7.05882353 L34.2352941,9.17647059 C34.2352941,14 31.7647059,15.0588235 30.8235294,15.2941176 L30.8235294,15.4117647 C31.7647059,15.6470588 34.2352941,16.7058824 34.2352941,21.5294118 L34.2352941,23.6470588 C34.2352941,29.5294118 31.2941176,30.2352941 30.3529412,30.2352941 C29.4117647,30.2352941 26.3529412,29.5294118 26.3529412,23.6470588 L26.3529412,22.1176471 C26.3529412,22.1176471 26.3529412,22.1176471 26.3529412,22.1176471 L17.1764706,22.1176471 C17.1764706,22.4705882 17.1764706,22.4705882 17.1764706,22.8235294 C17.1764706,30.5882353 24.8235294,30.3529412 25.2941176,30.3529412 L36.2352941,30.3529412 C36.7058824,30.3529412 44.3529412,30.5882353 44.3529412,22.8235294 C44.2352941,16.5882353 39.7647059,15.4117647 37.5294118,15.2941176 Z" id="Path"></path>
            <polygon id="Path" points="0.117647059 0.470588235 0.117647059 30.2352941 9.76470588 30.2352941 9.76470588 18.7058824 9.76470588 0.470588235"></polygon>
        </g>
    </g>
</svg>