<?xml version="1.0" encoding="UTF-8"?>
<svg width="80px" height="80px" viewBox="0 0 80 80" version="1.1" xmlns="http://www.w3.org/2000/svg" xmlns:xlink="http://www.w3.org/1999/xlink">
    <title>a/channel/p4_plus</title>
    <g id="a/channel/p4_plus" stroke="none" stroke-width="1" fill="none" fill-rule="evenodd">
        <path d="M80,76 C80,78.2352941 78.2352941,80 76,80 L4,80 C1.76470588,80 0,78.2352941 0,76 L0,4 C0,1.76470588 1.76470588,1.42108547e-14 4,1.42108547e-14 L76,1.42108547e-14 C78.2352941,1.42108547e-14 80,1.76470588 80,4 L80,76 Z" id="Background" fill="#C518AD"></path>
        <g id="Group" transform="translate(17.176471, 22.352941)" fill="#FFFFFF" fill-rule="nonzero">
            <g transform="translate(0.000000, 18.647059)">
                <path d="M7.76470588,0.176470588 L3.64705882,0.176470588 C3.17647059,0.176470588 2.70588235,0.529411765 2.70588235,1 L0.941176471,13.8235294 C0.823529412,14.4117647 1.17647059,15 1.88235294,15 C2.35294118,15 2.82352941,14.6470588 2.82352941,14.1764706 L3.64705882,8.41176471 L6.94117647,8.41176471 C9.41176471,8.41176471 11.5294118,6.17647059 11.5294118,3.82352941 C11.5294118,2.76470588 11.1764706,1.82352941 10.4705882,1.23529412 C9.76470588,0.647058824 8.82352941,0.176470588 7.76470588,0.176470588 Z M6.94117647,6.41176471 L4,6.41176471 L4.58823529,2.05882353 L7.88235294,2.05882353 C8.94117647,2.05882353 9.64705882,2.76470588 9.64705882,3.82352941 C9.52941176,5.35294118 8.23529412,6.41176471 6.94117647,6.41176471 Z" id="Shape"></path>
                <path d="M20.2352941,13 L14.8235294,13 L16.4705882,1.35294118 C16.5882353,0.764705882 16.2352941,0.294117647 15.6470588,0.294117647 C15.0588235,0.176470588 14.5882353,0.529411765 14.4705882,1.11764706 L12.7058824,13.9411765 C12.5882353,14.5294118 12.9411765,15.1176471 13.6470588,15.1176471 L20.2352941,15.1176471 C20.8235294,15.1176471 21.1764706,14.6470588 21.1764706,14.1764706 C21.2941176,13.4705882 20.8235294,13 20.2352941,13 Z" id="Path"></path>
                <path d="M41.6470588,2.05882353 C44,2.05882353 44.1176471,3 44.8235294,3 C45.4117647,3 45.7647059,2.52941176 45.7647059,2.05882353 C45.7647059,1 43.8823529,0.0588235294 41.4117647,0.0588235294 C38.8235294,0.0588235294 36.8235294,2.17647059 36.8235294,4.64705882 C36.8235294,6.05882353 37.5294118,7.47058824 39.1764706,7.94117647 L41.7647059,8.76470588 C42.8235294,9.11764706 43.0588235,9.70588235 43.0588235,10.4117647 C43.0588235,11.8235294 42,13 40.1176471,13 C38.4705882,13 37.8823529,12.5294118 37.2941176,11.9411765 C37.0588235,11.7058824 36.8235294,11.7058824 36.5882353,11.7058824 C36.1176471,11.7058824 35.6470588,12.1764706 35.6470588,12.7647059 C35.6470588,13 35.7647059,13.2352941 36,13.5882353 C37.1764706,14.8823529 38.9411765,15.1176471 40.4705882,15.1176471 C42.9411765,15.1176471 45.0588235,13.1176471 45.0588235,10.5294118 C45.0588235,9.11764706 44.3529412,7.70588235 42.7058824,7.11764706 L40,6.17647059 C39.1764706,5.82352941 38.8235294,5.35294118 38.8235294,4.64705882 C38.8235294,3.23529412 40,2.05882353 41.6470588,2.05882353 Z" id="Path"></path>
                <path d="M33.8823529,0.176470588 C33.4117647,0.176470588 32.9411765,0.529411765 32.9411765,1 L31.7647059,9.58823529 C31.5294118,11.4705882 29.6470588,13.1176471 27.7647059,13.1176471 C26.1176471,13.1176471 24.7058824,11.8235294 25.0588235,9.94117647 L26.2352941,1.23529412 C26.3529412,0.529411765 25.7647059,0.176470588 25.2941176,0.176470588 C24.8235294,0.176470588 24.3529412,0.529411765 24.3529412,1 L23.1764706,9.58823529 C23.1764706,9.82352941 23.0588235,10.0588235 23.0588235,10.2941176 C23.0588235,13.1176471 25.2941176,15 27.8823529,15 C30.8235294,15 33.4117647,12.7647059 33.7647059,9.82352941 L34.9411765,1.11764706 C34.9411765,0.647058824 34.3529412,0.176470588 33.8823529,0.176470588 Z" id="Path"></path>
            </g>
            <g id="Shape">
                <path d="M0.941176471,13.7647059 L2.82352941,0.823529412 C2.94117647,0.352941176 3.29411765,0 3.76470588,0 L7.88235294,0 C8.94117647,0 9.88235294,0.352941176 10.5882353,1.05882353 C11.2941176,1.76470588 11.6470588,2.70588235 11.6470588,3.76470588 C11.6470588,6.11764706 9.52941176,8.35294118 7.05882353,8.35294118 L3.76470588,8.35294118 L2.94117647,14.1176471 C2.82352941,14.5882353 2.47058824,14.9411765 2,14.9411765 C1.29411765,14.9411765 0.823529412,14.3529412 0.941176471,13.7647059 Z M7.05882353,6.23529412 C8.35294118,6.23529412 9.76470588,5.05882353 9.76470588,3.64705882 C9.76470588,2.58823529 9.05882353,1.88235294 8,1.88235294 L4.70588235,1.88235294 L4.11764706,6.23529412 L7.05882353,6.23529412 Z"></path>
                <path d="M17.5294118,13.8823529 L17.8823529,11.2941176 L12.5882353,11.2941176 C12.2352941,11.2941176 11.8823529,11.0588235 11.7647059,10.8235294 C11.6470588,10.4705882 11.6470588,10.1176471 11.8823529,9.88235294 L19.6470588,0.352941176 C19.8823529,1.29306288e-14 20.4705882,-0.117647059 20.8235294,0.117647059 C21.1764706,0.235294118 21.4117647,0.705882353 21.2941176,1.05882353 L20.1176471,9.64705882 L22,9.64705882 C22.4705882,9.64705882 22.9411765,10 22.9411765,10.5882353 C22.9411765,11.0588235 22.4705882,11.5294118 22,11.5294118 L19.8823529,11.5294118 L19.5294118,14.4705882 C19.4117647,14.9411765 18.9411765,15.2941176 18.4705882,15.2941176 C17.8823529,14.9411765 17.4117647,14.3529412 17.5294118,13.8823529 Z M18.1176471,9.41176471 L18.9411765,3.76470588 L14.3529412,9.41176471 L18.1176471,9.41176471 Z"></path>
            </g>
        </g>
    </g>
</svg>