<?xml version="1.0" encoding="UTF-8"?>
<svg width="80px" height="80px" viewBox="0 0 80 80" version="1.1" xmlns="http://www.w3.org/2000/svg" xmlns:xlink="http://www.w3.org/1999/xlink">
    <title>a/channel/p1</title>
    <g id="a/channel/p1" stroke="none" stroke-width="1" fill="none" fill-rule="evenodd">
        <path d="M80,76 C80,78.2352941 78.2352941,80 76,80 L4,80 C1.76470588,80 0,78.2352941 0,76 L0,4 C0,1.76470588 1.76470588,1.42108547e-14 4,1.42108547e-14 L76,1.42108547e-14 C78.2352941,1.42108547e-14 80,1.76470588 80,4 L80,76 Z" id="Background" fill="#35A3BF"></path>
        <g id="Group" transform="translate(18.588235, 24.705882)" fill="#FFFFFF" fill-rule="nonzero">
            <path d="M17.4117647,10.1176471 C17.4117647,16.9411765 13.2941176,17.7647059 13.2941176,17.7647059 L18.8235294,17.7647059 C19.4117647,17.7647059 28.7058824,18.1176471 28.7058824,9.05882353 C28.7058824,5.55111512e-17 19.4117647,0.352941176 18.8235294,0.352941176 L13.2941176,0.352941176 C13.2941176,0.352941176 17.4117647,1.17647059 17.4117647,8 L17.4117647,10.1176471 Z" id="Path"></path>
            <polygon id="Path" points="42.7058824 30.2352941 42.7058824 0.470588235 37.7647059 0.470588235 31.8823529 10.7058824 31.8823529 30.2352941"></polygon>
            <polygon id="Path" points="0.117647059 0.470588235 0.117647059 30.2352941 10.4705882 30.2352941 10.4705882 21.0588235 10.4705882 0.470588235"></polygon>
        </g>
    </g>
</svg>