<?xml version="1.0" encoding="UTF-8"?>
<svg width="80px" height="80px" viewBox="0 0 80 80" version="1.1" xmlns="http://www.w3.org/2000/svg" xmlns:xlink="http://www.w3.org/1999/xlink">
    <title>a/channel/same_radion</title>
    <g id="a/channel/same_radion" stroke="none" stroke-width="1" fill="none" fill-rule="evenodd">
        <path d="M80,76 C80,78.2352941 78.2352941,80 76,80 L4,80 C1.76470588,80 0,78.2352941 0,76 L0,4 C0,1.76470588 1.76470588,0 4,0 L76,0 C78.2352941,0 80,1.76470588 80,4 L80,76 Z" id="Background" fill="#0065BD"></path>
        <path d="M21.2618026,30.8908297 C20.6716738,30.1834061 19.7274678,29.7117904 18.9012876,29.7117904 C18.0751073,29.7117904 17.0128755,29.9475983 17.0128755,31.0087336 C17.0128755,31.9519651 17.8390558,32.1877729 19.0193133,32.5414847 C20.7896996,33.1310044 23.1502146,33.9563319 23.1502146,36.5502183 C23.1502146,39.6157205 20.6716738,41.0305677 18.0751073,41.0305677 C16.1866953,41.0305677 14.1802575,40.3231441 13,39.1441048 L15.1244635,37.0218341 C15.7145923,37.8471616 17.0128755,38.4366812 18.0751073,38.4366812 C19.0193133,38.4366812 19.9635193,38.0829694 19.9635193,37.0218341 C19.9635193,35.9606987 18.9012876,35.7248908 17.1309013,35.1353712 C15.4785408,34.5458515 13.7081545,33.720524 13.7081545,31.2445415 C13.7081545,28.2969432 16.4227468,27 18.9012876,27 C20.4356223,27 22.0879828,27.5895197 23.2682403,28.650655 L21.2618026,30.8908297 Z M34.9527897,40.7947598 L33.8905579,38.2008734 L28.6974249,38.2008734 L27.7532189,40.7947598 L24.2124464,40.7947598 L29.8776824,27.3537118 L33.0643777,27.3537118 L38.611588,40.7947598 L34.9527897,40.7947598 Z M31.2939914,30.8908297 L29.6416309,35.489083 L33.0643777,35.489083 L31.2939914,30.8908297 Z M52.1845494,40.7947598 L52.3025751,31.3624454 L52.3025751,31.3624454 L48.7618026,40.7947598 L46.5193133,40.7947598 L43.0965665,31.3624454 L43.0965665,31.3624454 L43.2145923,40.7947598 L40.1459227,40.7947598 L40.1459227,27.3537118 L44.748927,27.3537118 L47.8175966,35.9606987 L47.9356223,35.9606987 L50.8862661,27.3537118 L55.6072961,27.3537118 L55.6072961,40.7947598 L52.1845494,40.7947598 Z M58.6759657,40.7947598 L58.6759657,27.3537118 L67.6459227,27.3537118 L67.6459227,30.0655022 L61.7446352,30.0655022 L61.7446352,32.5414847 L67.2918455,32.5414847 L67.2918455,35.1353712 L61.7446352,35.1353712 L61.7446352,37.9650655 L68,37.9650655 L68,40.6768559 L58.6759657,40.6768559 L58.6759657,40.7947598 Z M19.1373391,53.7641921 L17.0128755,49.9912664 L16.1866953,49.9912664 L16.1866953,53.7641921 L13.944206,53.7641921 L13.944206,44.2139738 L17.6030043,44.2139738 C19.4914163,44.2139738 21.2618026,44.9213974 21.2618026,47.1615721 C21.2618026,48.4585153 20.5536481,49.4017467 19.2553648,49.7554585 L21.7339056,53.8820961 L19.1373391,53.8820961 L19.1373391,53.7641921 Z M17.4849785,45.9825328 L16.304721,45.9825328 L16.304721,48.2227074 L17.3669528,48.2227074 C18.0751073,48.2227074 19.0193133,47.9868996 19.0193133,47.0436681 C19.0193133,46.2183406 18.193133,45.9825328 17.4849785,45.9825328 Z M29.5236052,53.7641921 L28.8154506,51.8777293 L25.0386266,51.8777293 L24.3304721,53.7641921 L21.8519313,53.7641921 L25.8648069,44.2139738 L28.1072961,44.2139738 L32.1201717,53.7641921 L29.5236052,53.7641921 Z M26.9270386,46.6899563 L25.7467811,49.9912664 L28.1072961,49.9912664 L26.9270386,46.6899563 Z M36.4871245,53.7641921 L32.9463519,53.7641921 L32.9463519,44.2139738 L36.3690987,44.2139738 C39.083691,44.2139738 41.916309,45.3930131 41.916309,48.930131 C41.7982833,52.349345 39.083691,53.7641921 36.4871245,53.7641921 Z M36.251073,46.1004367 L35.0708155,46.1004367 L35.0708155,51.7598253 L36.1330472,51.7598253 C37.7854077,51.7598253 39.3197425,51.0524017 39.3197425,48.930131 C39.4377682,46.8078603 37.9034335,46.1004367 36.251073,46.1004367 Z M43.332618,53.7641921 L43.332618,44.2139738 L45.693133,44.2139738 L45.693133,53.7641921 L43.332618,53.7641921 Z M52.5386266,54 C49.5879828,54 47.3454936,51.9956332 47.3454936,48.930131 C47.3454936,45.8646288 49.5879828,43.860262 52.5386266,43.860262 C55.6072961,43.860262 57.7317597,45.7467249 57.7317597,48.930131 C57.7317597,51.9956332 55.4892704,54 52.5386266,54 Z M52.5386266,45.9825328 C50.8862661,45.9825328 49.8240343,47.279476 49.8240343,48.930131 C49.8240343,50.69869 51.0042918,51.8777293 52.5386266,51.8777293 C54.1909871,51.8777293 55.2532189,50.580786 55.2532189,48.930131 C55.2532189,47.279476 54.0729614,45.9825328 52.5386266,45.9825328 Z M65.4034335,53.7641921 L61.5085837,47.5152838 L61.5085837,47.5152838 L61.5085837,53.7641921 L59.2660944,53.7641921 L59.2660944,44.2139738 L61.8626609,44.2139738 L65.7575107,50.4628821 L65.7575107,50.4628821 L65.7575107,44.2139738 L68,44.2139738 L68,53.7641921 L65.4034335,53.7641921 Z" id="Shape" fill="#FFFFFF" fill-rule="nonzero"></path>
    </g>
</svg>