<?xml version="1.0" encoding="UTF-8"?>
<svg width="80px" height="80px" viewBox="0 0 80 80" version="1.1" xmlns="http://www.w3.org/2000/svg" xmlns:xlink="http://www.w3.org/1999/xlink">
    <title>a/channel/ekot</title>
    <g id="a/channel/ekot" stroke="none" stroke-width="1" fill="none" fill-rule="evenodd">
        <path d="M80,76 C80,78.2352941 78.2352941,80 76,80 L4,80 C1.76470588,80 0,78.2352941 0,76 L0,4 C0,1.76470588 1.76470588,1.42108547e-14 4,1.42108547e-14 L76,1.42108547e-14 C78.2352941,1.42108547e-14 80,1.76470588 80,4 L80,76 Z" id="Path" fill="#0065BD"></path>
        <g id="Shape-2" transform="translate(11.882353, 31.647059)" fill="#FFFFFF" fill-rule="nonzero">
            <path d="M55.7647059,0.235294118 L55.7647059,3.52941176 L51.1764706,3.52941176 L51.1764706,16.4705882 L47.2941176,16.4705882 L47.2941176,3.52941176 L42.7058824,3.52941176 L42.7058824,0.235294118 L55.7647059,0.235294118 Z M42.9411765,8.35294118 C42.9411765,12.9411765 39.1764706,16.7058824 34.5882353,16.7058824 C30,16.7058824 26.2352941,12.9411765 26.2352941,8.35294118 C26.2352941,3.76470588 30,-5.32907052e-15 34.5882353,-5.32907052e-15 C39.1764706,-5.32907052e-15 42.9411765,3.76470588 42.9411765,8.35294118 Z M39.0588235,8.35294118 C39.0588235,5.88235294 37.0588235,3.88235294 34.5882353,3.88235294 C32.1176471,3.88235294 30.1176471,5.88235294 30.1176471,8.35294118 C30.1176471,10.8235294 32.1176471,12.8235294 34.5882353,12.8235294 C37.0588235,12.8235294 39.0588235,10.8235294 39.0588235,8.35294118 Z M27.7647059,0.235294118 L22.8235294,0.235294118 L16.9411765,6.47058824 L16.9411765,0.235294118 L13.1764706,0.235294118 L13.1764706,16.3529412 L16.9411765,16.3529412 L16.9411765,9.64705882 L22.8235294,16.3529412 L27.7647059,16.3529412 L20.1176471,8 L27.7647059,0.235294118 Z M9.59232693e-14,16.4705882 L11.2941176,16.4705882 L11.2941176,13.1764706 L3.76470588,13.1764706 L3.76470588,9.64705882 L10.9411765,9.64705882 L10.9411765,6.47058824 L3.76470588,6.47058824 L3.76470588,3.52941176 L11.2941176,3.52941176 L11.2941176,0.235294118 L9.59232693e-14,0.235294118 L9.59232693e-14,16.4705882 Z M56.5882353,11.7647059 C55.2941176,11.7647059 54.1176471,12.8235294 54.1176471,14.2352941 C54.1176471,15.5294118 55.1764706,16.7058824 56.5882353,16.7058824 C57.8823529,16.7058824 59.0588235,15.6470588 59.0588235,14.2352941 C58.9411765,12.8235294 57.8823529,11.7647059 56.5882353,11.7647059 Z" id="Shape"></path>
        </g>
    </g>
</svg>