<?xml version="1.0" encoding="UTF-8"?>
<svg width="80px" height="80px" viewBox="0 0 80 80" version="1.1" xmlns="http://www.w3.org/2000/svg" xmlns:xlink="http://www.w3.org/1999/xlink">
    <title>a/channel/p2</title>
    <g id="a/channel/p2" stroke="none" stroke-width="1" fill="none" fill-rule="evenodd">
        <path d="M80,76 C80,78.2352941 78.2352941,80 76,80 L4,80 C1.76470588,80 0,78.2352941 0,76 L0,4 C0,1.76470588 1.76470588,1.42108547e-14 4,1.42108547e-14 L76,1.42108547e-14 C78.2352941,1.42108547e-14 80,1.76470588 80,4 L80,76 L80,76 Z" id="Background" fill="#FF6000"></path>
        <g id="Group" transform="translate(18.647059, 24.705882)" fill="#FFFFFF" fill-rule="nonzero">
            <path d="M16.5294118,10.1176471 C16.5294118,16.9411765 12.2941176,17.7647059 12.2941176,17.7647059 L17.8235294,17.7647059 C18.4117647,17.7647059 27.5882353,18.1176471 27.5882353,9.05882353 C27.5882353,1.00419673e-13 18.2941176,0.352941176 17.8235294,0.352941176 L12.2941176,0.352941176 C12.2941176,0.352941176 16.5294118,1.17647059 16.5294118,8 L16.5294118,10.1176471 Z" id="Path"></path>
            <rect id="Rectangle" x="22.6470588" y="22.5882353" width="20.7058824" height="7.52941176"></rect>
            <path d="M44.1764706,10.2352941 C44.1764706,3.52941176 37.9411765,0.470588235 34.5294118,0.470588235 C32.5294118,0.470588235 26.5294118,0.470588235 26.5294118,0.470588235 L26.5294118,0.470588235 L26.5294118,0.470588235 C26.5294118,0.470588235 33.1176471,2.70588235 33.1176471,10.2352941 C33.1176471,18.7058824 27.9411765,20.7058824 27.9411765,20.7058824 C27.9411765,20.7058824 32.2941176,20.7058824 34.6470588,20.7058824 C37,20.7058824 44.1764706,19.2941176 44.1764706,10.2352941 L44.1764706,10.2352941 Z" id="Path"></path>
            <polygon id="Path" points="0.0588235294 0.470588235 0.0588235294 30.2352941 9.70588235 30.2352941 9.70588235 21.5294118 9.70588235 0.470588235"></polygon>
        </g>
    </g>
</svg>