<?xml version="1.0" encoding="UTF-8"?>
<svg width="80px" height="80px" viewBox="0 0 80 80" version="1.1" xmlns="http://www.w3.org/2000/svg" xmlns:xlink="http://www.w3.org/1999/xlink">
    <title>a/channel/barn_radion</title>
    <g id="a/channel/barn_radion" stroke="none" stroke-width="1" fill="none" fill-rule="evenodd">
        <path d="M80,76 C80,78.2352941 78.2352941,80 76,80 L4,80 C1.76470588,80 3.55271368e-14,78.2352941 3.55271368e-14,76 L3.55271368e-14,4 C3.55271368e-14,1.76470588 1.76470588,1.42108547e-14 4,1.42108547e-14 L76,1.42108547e-14 C78.2352941,1.42108547e-14 80,1.76470588 80,4 L80,76 Z" id="Background" fill="#A345B3" fill-rule="nonzero"></path>
        <g id="Group" transform="translate(11.764706, 24.705882)" fill="#FFFFFF" fill-rule="nonzero">
            <path d="M30.5882353,17.6470588 C31.6470588,17.6470588 32.4705882,16.7058824 32.3529412,15.6470588 L32.1176471,10.5882353 L32.7058824,10.5882353 L36.4705882,16.2352941 C36.8235294,16.8235294 37.5294118,17.1764706 38.1176471,17.0588235 C38.4705882,17.0588235 38.7058824,16.9411765 39.0588235,16.7058824 C39.8823529,16.1176471 40.2352941,14.9411765 39.6470588,14.1176471 L36.8235294,9.88235294 C38.4705882,9.05882353 39.5294118,7.17647059 39.4117647,5.29411765 C39.2941176,2.58823529 36.9411765,0.470588235 34.2352941,0.588235294 L29.7647059,0.823529412 C28.7058824,0.823529412 27.8823529,1.76470588 28,2.82352941 L28.7058824,15.8823529 C28.7058824,16.9411765 29.5294118,17.6470588 30.5882353,17.6470588 Z M34.3529412,4.35294118 C35.0588235,4.35294118 35.5294118,4.82352941 35.6470588,5.52941176 C35.6470588,6.23529412 35.1764706,6.70588235 34.4705882,6.82352941 L31.8823529,6.94117647 L31.7647059,4.58823529 L34.3529412,4.35294118 Z" id="Shape"></path>
            <path d="M2.82352941,17.5294118 L7.52941176,17.5294118 C9.41176471,17.5294118 11.0588235,16.5882353 12,15.1764706 C12,15.8823529 12.3529412,16.5882353 12.9411765,16.9411765 C13.8823529,17.4117647 14.9411765,17.0588235 15.5294118,16.2352941 L15.7647059,15.7647059 L23.6470588,16.2352941 L23.7647059,16.7058824 C24,17.4117647 24.7058824,17.8823529 25.4117647,18 C25.6470588,18 25.8823529,18 26.1176471,17.8823529 C27.0588235,17.5294118 27.6470588,16.4705882 27.2941176,15.5294118 L22.4705882,2.11764706 C22.2352941,1.41176471 21.5294118,0.941176471 20.8235294,0.823529412 C20.1176471,0.705882353 19.4117647,1.17647059 19.0588235,1.76470588 L12.5882353,13.4117647 C12.7058824,13.0588235 12.7058824,12.5882353 12.7058824,12.2352941 C12.7058824,10.8235294 12.1176471,9.41176471 11.1764706,8.47058824 C11.7647059,7.64705882 12,6.70588235 12,5.76470588 C12,3.05882353 9.76470588,0.823529412 7.05882353,0.823529412 L2.70588235,0.823529412 C1.64705882,0.823529412 0.823529412,1.64705882 0.823529412,2.70588235 L0.823529412,15.7647059 C0.941176471,16.7058824 1.76470588,17.5294118 2.82352941,17.5294118 Z M20.3529412,7.17647059 L22.2352941,12.3529412 L17.7647059,12.1176471 L20.3529412,7.17647059 Z M4.70588235,4.47058824 L7.17647059,4.47058824 C7.88235294,4.47058824 8.35294118,5.05882353 8.35294118,5.64705882 C8.35294118,6.35294118 7.76470588,6.82352941 7.17647059,6.82352941 L4.70588235,6.82352941 L4.70588235,4.47058824 Z M4.70588235,10.5882353 C4.70588235,10.5882353 7.52941176,10.5882353 7.52941176,10.5882353 C8.35294118,10.5882353 9.05882353,11.2941176 9.05882353,12.1176471 C9.05882353,12.9411765 8.35294118,13.6470588 7.52941176,13.6470588 L4.70588235,13.6470588 L4.70588235,10.5882353 Z" id="Shape"></path>
            <path d="M52.9411765,0.705882353 C51.8823529,0.705882353 51.0588235,1.52941176 51.0588235,2.58823529 L51.0588235,10 L44.5882353,1.41176471 C44.1176471,0.823529412 43.2941176,0.470588235 42.4705882,0.823529412 C41.6470588,1.05882353 41.1764706,1.76470588 41.1764706,2.58823529 L41.1764706,15.6470588 C41.1764706,16.7058824 42,17.5294118 43.0588235,17.5294118 C44.1176471,17.5294118 44.9411765,16.7058824 44.9411765,15.6470588 L44.9411765,8.23529412 L51.4117647,16.8235294 C51.7647059,17.2941176 52.3529412,17.5294118 52.9411765,17.5294118 C53.1764706,17.5294118 53.2941176,17.5294118 53.5294118,17.4117647 C54.3529412,17.1764706 54.8235294,16.4705882 54.8235294,15.6470588 L54.8235294,2.58823529 C54.8235294,1.52941176 54,0.705882353 52.9411765,0.705882353 Z" id="Path"></path>
            <path d="M8.58823529,22.2352941 C8.58823529,20.3529412 7.05882353,18.9411765 5.29411765,18.9411765 L2.23529412,18.9411765 C1.52941176,18.9411765 0.941176471,19.5294118 0.941176471,20.2352941 L0.941176471,28.9411765 C0.941176471,29.6470588 1.52941176,30.2352941 2.23529412,30.2352941 C2.94117647,30.2352941 3.52941176,29.6470588 3.52941176,28.9411765 L3.52941176,25.5294118 L4,25.5294118 L6.35294118,29.4117647 C6.58823529,29.7647059 7.05882353,30 7.41176471,30 C7.64705882,30 7.88235294,30 8,29.8823529 C8.58823529,29.5294118 8.82352941,28.7058824 8.47058824,28.1176471 L6.70588235,25.1764706 C7.76470588,24.7058824 8.58823529,23.5294118 8.58823529,22.2352941 Z M5.17647059,23.0588235 L3.41176471,23.0588235 L3.41176471,21.4117647 L5.17647059,21.4117647 C5.64705882,21.4117647 6,21.7647059 6,22.2352941 C6,22.7058824 5.64705882,23.0588235 5.17647059,23.0588235 Z" id="Shape"></path>
            <path d="M16.3529412,19.6470588 C16.2352941,19.1764706 15.7647059,18.8235294 15.2941176,18.8235294 C14.8235294,18.8235294 14.3529412,19.0588235 14.1176471,19.4117647 L9.29411765,27.7647059 C8.94117647,28.3529412 9.17647059,29.1764706 9.76470588,29.5294118 C10.3529412,29.8823529 11.1764706,29.6470588 11.5294118,29.0588235 L11.8823529,28.4705882 L16.9411765,28.9411765 L17.1764706,29.5294118 C17.2941176,30 17.7647059,30.3529412 18.2352941,30.3529412 C18.3529412,30.3529412 18.5882353,30.3529412 18.7058824,30.2352941 C19.4117647,30 19.7647059,29.2941176 19.5294118,28.5882353 L16.3529412,19.6470588 Z M13.0588235,26 L14.8235294,23.0588235 L15.8823529,26.2352941 L13.0588235,26 Z" id="Shape"></path>
            <path d="M53.6470588,19.0588235 C52.9411765,19.0588235 52.3529412,19.5294118 52.3529412,20.2352941 L52.1176471,25.1764706 L48,19.1764706 C47.6470588,18.7058824 47.1764706,18.5882353 46.5882353,18.7058824 C46.1176471,18.8235294 45.6470588,19.2941176 45.6470588,19.8823529 L45.2941176,28.5882353 C45.2941176,29.2941176 45.7647059,29.8823529 46.4705882,29.8823529 C47.1764706,29.8823529 47.7647059,29.4117647 47.7647059,28.7058824 L48,23.7647059 L52.1176471,29.7647059 C52.3529412,30.1176471 52.7058824,30.2352941 53.0588235,30.3529412 C53.1764706,30.3529412 53.2941176,30.3529412 53.4117647,30.3529412 C53.8823529,30.2352941 54.3529412,29.7647059 54.3529412,29.1764706 L54.7058824,20.4705882 C54.8235294,19.6470588 54.2352941,19.0588235 53.6470588,19.0588235 Z" id="Path"></path>
            <path d="M32.7058824,28.8235294 L32.2352941,20.1176471 C32.2352941,19.4117647 31.6470588,18.9411765 30.9411765,18.9411765 C30.2352941,18.9411765 29.7647059,19.5294118 29.7647059,20.2352941 L30.2352941,28.9411765 C30.2352941,29.6470588 30.8235294,30.1176471 31.5294118,30.1176471 C32.2352941,30.1176471 32.8235294,29.5294118 32.7058824,28.8235294 L32.7058824,28.8235294 L32.7058824,28.8235294 Z" id="Path"></path>
            <path d="M24.5882353,18.9411765 L21.2941176,18.9411765 C20.5882353,18.9411765 20,19.5294118 20,20.2352941 L20,28.9411765 C20,29.6470588 20.5882353,30.2352941 21.2941176,30.2352941 L24.2352941,30.2352941 C26.2352941,30.2352941 29.1764706,28 29.1764706,24.4705882 C29.1764706,20.7058824 26.4705882,18.9411765 24.5882353,18.9411765 Z M24.2352941,27.6470588 L22.5882353,27.6470588 L22.5882353,21.4117647 L24.7058824,21.4117647 C25.1764706,21.4117647 26.7058824,22.1176471 26.7058824,24.3529412 C26.5882353,26.7058824 24.7058824,27.6470588 24.2352941,27.6470588 Z" id="Shape"></path>
            <path d="M38.9411765,18.8235294 C35.7647059,18.8235294 33.2941176,21.4117647 33.2941176,24.4705882 C33.2941176,27.6470588 35.8823529,30.1176471 38.9411765,30.1176471 C42.1176471,30.1176471 44.5882353,27.5294118 44.5882353,24.4705882 C44.7058824,21.4117647 42.1176471,18.8235294 38.9411765,18.8235294 Z M38.9411765,27.7647059 C37.1764706,27.7647059 35.7647059,26.3529412 35.7647059,24.5882353 C35.7647059,22.8235294 37.1764706,21.4117647 38.9411765,21.4117647 C40.7058824,21.4117647 42.1176471,22.8235294 42.1176471,24.5882353 C42.1176471,26.3529412 40.7058824,27.7647059 38.9411765,27.7647059 Z" id="Shape"></path>
        </g>
    </g>
</svg>