<?xml version="1.0" encoding="UTF-8"?>
<svg width="80px" height="80px" viewBox="0 0 80 80" version="1.1" xmlns="http://www.w3.org/2000/svg" xmlns:xlink="http://www.w3.org/1999/xlink">
    <title>a/channel/finska</title>
    <g id="a/channel/finska" stroke="none" stroke-width="1" fill="none" fill-rule="evenodd">
        <path d="M80,76 C80,78.2352941 78.2352941,80 76,80 L4,80 C1.76470588,80 3.55271368e-14,78.2352941 3.55271368e-14,76 L3.55271368e-14,4 C3.55271368e-14,1.76470588 1.76470588,1.42108547e-14 4,1.42108547e-14 L76,1.42108547e-14 C78.2352941,1.42108547e-14 80,1.76470588 80,4 L80,76 Z" id="Path" fill="#0065BD"></path>
        <g id="Group" transform="translate(9.647059, 32.941176)" fill="#FFFFFF" fill-rule="nonzero">
            <path d="M34.4705882,4.23529412 C34,3.64705882 33.0588235,3.17647059 32.3529412,3.17647059 C31.6470588,3.17647059 30.7058824,3.41176471 30.7058824,4.35294118 C30.7058824,5.17647059 31.4117647,5.41176471 32.5882353,5.76470588 C34.2352941,6.23529412 36.3529412,6.94117647 36.3529412,9.41176471 C36.3529412,12.1176471 34.1176471,13.4117647 31.7647059,13.4117647 C30,13.4117647 28.3529412,12.8235294 27.2941176,11.6470588 L29.1764706,9.76470588 C29.7647059,10.4705882 30.8235294,11.0588235 31.7647059,11.0588235 C32.5882353,11.0588235 33.4117647,10.7058824 33.4117647,9.76470588 C33.4117647,8.82352941 32.4705882,8.58823529 30.9411765,8 C29.4117647,7.52941176 27.8823529,6.70588235 27.8823529,4.58823529 C27.8823529,1.88235294 30.2352941,0.823529412 32.4705882,0.823529412 C33.7647059,0.823529412 35.2941176,1.29411765 36.3529412,2.23529412 L34.4705882,4.23529412 Z" id="Path"></path>
            <polygon id="Path" points="0.470588235 13.0588235 0.470588235 1.05882353 8.47058824 1.05882353 8.47058824 3.52941176 3.17647059 3.52941176 3.17647059 6 8.11764706 6 8.11764706 8.23529412 3.17647059 8.23529412 3.17647059 13.0588235"></polygon>
            <path d="M57.1764706,13.0588235 L56.2352941,10.7058824 L51.6470588,10.7058824 L50.8235294,13.0588235 L47.6470588,13.0588235 L52.7058824,1.05882353 L55.5294118,1.05882353 L60.4705882,13.0588235 L57.1764706,13.0588235 Z M53.8823529,4.23529412 L52.3529412,8.35294118 L55.4117647,8.35294118 L53.8823529,4.23529412 Z" id="Shape"></path>
            <rect id="Rectangle" x="10.2352941" y="1.05882353" width="2.94117647" height="12"></rect>
            <polygon id="Path" points="22.8235294 13.0588235 18 5.29411765 18 5.29411765 18.1176471 13.0588235 15.2941176 13.0588235 15.2941176 1.05882353 18.5882353 1.05882353 23.2941176 8.94117647 23.4117647 8.94117647 23.2941176 1.05882353 26.1176471 1.05882353 26.1176471 13.0588235"></polygon>
            <polygon id="Path" points="48.3529412 1.05882353 44.8235294 1.05882353 40.4705882 5.64705882 40.4705882 1.05882353 37.6470588 1.05882353 37.6470588 13.0588235 40.4705882 13.0588235 40.4705882 8.11764706 44.8235294 13.0588235 48.3529412 13.0588235 42.7058824 6.82352941"></polygon>
        </g>
    </g>
</svg>