<?xml version="1.0" encoding="UTF-8"?>
<svg width="80px" height="80px" viewBox="0 0 80 80" version="1.1" xmlns="http://www.w3.org/2000/svg" xmlns:xlink="http://www.w3.org/1999/xlink">
    <title> a/channel/p6</title>
    <g id="-a/channel/p6" stroke="none" stroke-width="1" fill="none" fill-rule="evenodd">
        <path d="M80,76 C80,78.2352941 78.2352941,80 76,80 L4,80 C1.76470588,80 0,78.2352941 0,76 L0,4 C0,1.76470588 1.76470588,1.42108547e-14 4,1.42108547e-14 L76,1.42108547e-14 C78.2352941,1.42108547e-14 80,1.76470588 80,4 L80,76 Z" id="Background" fill="#0065BD"></path>
        <g id="Group" transform="translate(18.705882, 24.705882)" fill="#FFFFFF" fill-rule="nonzero">
            <path d="M0,0.352941176 L11.0588235,0.352941176 C17.2941176,0.352941176 22.3529412,2.35294118 22.3529412,9.41176471 C22.3529412,16.3529412 17.6470588,18.5882353 11.2941176,18.5882353 L6.47058824,18.5882353 L6.47058824,30.2352941 L0,30.2352941 L0,0.352941176 Z M6.58823529,13.0588235 L10.9411765,13.0588235 C13.2941176,13.0588235 15.5294118,12.2352941 15.5294118,9.52941176 C15.5294118,6.47058824 12.4705882,6 9.88235294,6 L6.47058824,6 L6.47058824,13.0588235 L6.58823529,13.0588235 Z" id="Shape"></path>
            <path d="M33.7647059,11.0588235 C34.4705882,10.9411765 35.0588235,10.8235294 35.8823529,10.8235294 C41.5294118,10.8235294 45.1764706,15.0588235 45.1764706,20.5882353 C45.1764706,26.7058824 40.3529412,30.8235294 34.1176471,30.8235294 C27.8823529,30.8235294 23.0588235,26.7058824 23.0588235,20.5882353 C23.0588235,16.3529412 24.7058824,13.6470588 26.5882353,10.7058824 L33.0588235,0.588235294 L40.7058824,0.588235294 L33.7647059,11.0588235 Z M34.1176471,15.5294118 C31.2941176,15.5294118 29.2941176,17.5294118 29.2941176,20.2352941 C29.2941176,22.9411765 31.2941176,24.9411765 34.1176471,24.9411765 C36.9411765,24.9411765 38.9411765,22.9411765 38.9411765,20.2352941 C38.9411765,17.5294118 36.9411765,15.5294118 34.1176471,15.5294118 Z" id="Shape"></path>
        </g>
    </g>
</svg>