<?xml version="1.0" encoding="UTF-8"?>
<svg width="80px" height="80px" viewBox="0 0 80 80" version="1.1" xmlns="http://www.w3.org/2000/svg" xmlns:xlink="http://www.w3.org/1999/xlink">
    <title>a/channel/p4</title>
    <g id="a/channel/p4" stroke="none" stroke-width="1" fill="none" fill-rule="evenodd">
        <path d="M80,76 C80,78.2352941 78.2352941,80 76,80 L4,80 C1.76470588,80 0,78.2352941 0,76 L0,4 C0,1.76470588 1.76470588,1.42108547e-14 4,1.42108547e-14 L76,1.42108547e-14 C78.2352941,1.42108547e-14 80,1.76470588 80,4 L80,76 Z" id="Background" fill="#C518AD"></path>
        <g id="Group" transform="translate(16.000000, 24.705882)" fill="#FFFFFF" fill-rule="nonzero">
            <path d="M16.4705882,10.2352941 C16.4705882,17.0588235 12.7058824,17.7647059 12.7058824,17.7647059 L16.7058824,17.7647059 C17.1764706,17.7647059 26.9411765,18.1176471 26.9411765,9.05882353 C26.9411765,1.11022302e-16 19.4117647,0.352941176 18.8235294,0.352941176 L12.5882353,0.352941176 C12.5882353,0.352941176 16.3529412,1.17647059 16.3529412,7.88235294 L16.3529412,10.2352941 L16.4705882,10.2352941 Z" id="Path"></path>
            <polygon id="Path" points="0.823529412 0.470588235 0.823529412 30.2352941 10.1176471 30.2352941 10.1176471 12.8235294 10.1176471 0.470588235"></polygon>
            <polygon id="Path" points="36.2352941 0.470588235 22.3529412 23.2941176 32.8235294 23.2941176 47.0588235 0.470588235"></polygon>
            <polygon id="Path" points="40 15.2941176 35.0588235 23.2941176 35.0588235 30.2352941 44.1176471 30.2352941 44.1176471 15.2941176"></polygon>
        </g>
    </g>
</svg>